<?xml version="1.0" standalone="no"?>
<!DOCTYPE svg PUBLIC "-//W3C//DTD SVG 20010904//EN"
 "http://www.w3.org/TR/2001/REC-SVG-20010904/DTD/svg10.dtd">
<svg version="1.0" xmlns="http://www.w3.org/2000/svg"
 width="225.000000pt" height="225.000000pt" viewBox="0 0 225.000000 225.000000"
 preserveAspectRatio="xMidYMid meet">

<g transform="translate(0.000000,225.000000) scale(0.100000,-0.100000)"
fill="#000000" stroke="none">
<path d="M842 2238 c-8 -8 -12 -55 -12 -145 0 -133 0 -134 25 -145 21 -9 28
-8 45 7 18 16 20 31 20 140 0 105 -2 124 -18 138 -22 20 -43 22 -60 5z"/>
<path d="M267 2003 c-4 -3 -7 -18 -7 -32 0 -34 164 -201 197 -201 21 0 43 26
43 51 0 6 -39 51 -87 100 -66 68 -93 89 -113 89 -15 0 -30 -3 -33 -7z"/>
<path d="M1328 1922 c-48 -49 -88 -95 -88 -104 0 -22 27 -48 48 -48 10 0 60
43 112 95 89 89 93 95 82 120 -22 48 -56 34 -154 -63z"/>
<path d="M741 1884 c-169 -45 -312 -189 -357 -358 -20 -76 -18 -202 6 -278 25
-80 83 -172 142 -223 l45 -40 -25 -37 c-52 -79 -26 -189 56 -240 l37 -23 478
-3 479 -3 36 -24 c77 -51 183 -72 271 -55 130 25 228 100 284 218 29 61 32 76
32 162 0 82 -4 103 -27 152 -49 107 -150 191 -260 218 -30 8 -48 18 -48 27 0
35 -58 132 -109 184 -81 80 -152 112 -267 117 -70 3 -105 0 -145 -13 l-53 -18
-25 34 c-130 176 -350 257 -550 203z m269 -98 c67 -24 146 -82 186 -138 l37
-49 -35 -37 c-51 -54 -77 -95 -97 -154 l-17 -52 -62 3 c-164 7 -297 -112 -310
-276 -2 -35 -7 -63 -10 -63 -3 0 -27 14 -53 31 -66 42 -116 100 -153 178 -28
61 -31 74 -31 166 1 130 24 192 105 278 91 98 192 140 320 133 41 -3 95 -12
120 -20z"/>
<path d="M32 1428 c-19 -19 -14 -56 8 -68 12 -6 69 -9 141 -8 109 3 123 5 134
23 9 13 10 28 4 43 -8 21 -13 22 -142 22 -90 0 -137 -4 -145 -12z"/>
<path d="M342 937 c-83 -83 -99 -116 -70 -145 23 -23 44 -11 136 81 91 92 103
112 80 135 -29 29 -62 13 -146 -71z"/>
<path d="M674 635 c-4 -8 -1 -22 6 -30 11 -13 76 -15 456 -15 412 0 444 1 452
18 22 42 22 42 -454 42 -397 0 -455 -2 -460 -15z"/>
<path d="M834 472 c-6 -4 -43 -51 -83 -104 -78 -105 -88 -140 -41 -146 21 -2
36 12 103 101 42 58 77 112 77 120 0 9 -9 21 -19 27 -23 12 -23 12 -37 2z"/>
<path d="M1158 468 c-9 -7 -48 -57 -87 -112 -58 -81 -69 -101 -60 -117 22 -42
52 -23 132 85 42 57 77 108 77 114 0 12 -28 42 -39 42 -4 0 -14 -6 -23 -12z"/>
<path d="M1488 468 c-17 -15 -91 -112 -133 -175 -23 -35 -25 -46 -15 -58 29
-35 54 -18 128 84 85 117 88 124 67 145 -20 19 -26 20 -47 4z"/>
<path d="M570 123 c-53 -69 -59 -98 -27 -117 16 -9 24 -5 52 27 68 78 88 113
75 136 -19 37 -46 25 -100 -46z"/>
<path d="M933 168 c-76 -85 -102 -151 -63 -163 26 -8 32 -4 83 63 51 67 57 81
45 105 -12 24 -41 21 -65 -5z"/>
<path d="M1231 128 c-55 -69 -66 -112 -30 -123 25 -8 44 7 93 79 42 61 45 99
9 104 -16 2 -34 -12 -72 -60z"/>
</g>
</svg>
