<?xml version="1.0" encoding="UTF-8"?>
<svg version="1.1" xmlns="http://www.w3.org/2000/svg" width="204" height="192">
<path d="M0 0 C67.32 0 134.64 0 204 0 C204 63.36 204 126.72 204 192 C136.68 192 69.36 192 0 192 C0 128.64 0 65.28 0 0 Z " fill="#F7F7F7" transform="translate(0,0)"/>
<path d="M0 0 C33.66 0 67.32 0 102 0 C102 63.36 102 126.72 102 192 C72.63 192 43.26 192 13 192 C13 181.8 13 181.8 14.75 178.5625 C15.23726562 177.60537109 15.23726562 177.60537109 15.734375 176.62890625 C17.30842058 174.60305129 18.60036688 173.88430924 21 173 C22.32 173 23.64 173 25 173 C26.125 178.75 26.125 178.75 25 181 C27.97 181.33 30.94 181.66 34 182 C34.37125 180.741875 34.7425 179.48375 35.125 178.1875 C37.31726931 171.61069208 40.10536041 163.92975973 46 160 C48.6875 159.875 48.6875 159.875 51 160 C50.98839844 159.14535156 50.97679687 158.29070312 50.96484375 157.41015625 C50.95582031 156.30542969 50.94679687 155.20070312 50.9375 154.0625 C50.92589844 152.96035156 50.91429687 151.85820312 50.90234375 150.72265625 C51 148 51 148 52 147 C54.01964199 146.92755947 56.04167124 146.91622812 58.0625 146.9375 C59.16722656 146.94652344 60.27195313 146.95554688 61.41015625 146.96484375 C62.69212891 146.98224609 62.69212891 146.98224609 64 147 C64.06832031 146.24074219 64.13664062 145.48148438 64.20703125 144.69921875 C65.24328996 141.17185536 66.55503702 140.63391719 69.6875 138.8125 C76.7097772 134.21135128 81.20613983 127.25175677 83 119 C83.74061801 109.96446033 81.2553025 102.87959794 75.69140625 95.75390625 C73.96513274 93.96384434 72.33460368 92.91756556 70.1875 91.6875 C68.38671875 90.5078125 68.38671875 90.5078125 67 89 C66.51405866 86.37500846 66.49426247 83.85107188 66.421875 81.18359375 C65.05474275 70.86680871 58.31454547 62.16902782 50.3125 55.9375 C39.87516491 48.49873632 28.58737729 47.15813595 16 49 C12.47346308 50.03234459 9.44305583 51.66509794 6.3125 53.58984375 C4 55 4 55 0 56 C0 52.37 0 48.74 0 45 C5.94 44.505 5.94 44.505 12 44 C12.33 40.04 12.66 36.08 13 32 C10.3703125 32.3403125 10.3703125 32.3403125 7.6875 32.6875 C4.69921875 33.07421875 4.69921875 33.07421875 2 33 C1.01 32.01 0.02 31.02 -1 30 C-0.67 20.1 -0.34 10.2 0 0 Z " fill="#F7F7F7" transform="translate(102,0)"/>
<path d="M0 0 C8.33531789 4.502027 13.71649465 11.44245271 16.7265625 20.47265625 C16.79685371 23.04531443 16.82027082 25.58907056 16.7890625 28.16015625 C16.78455078 28.86205078 16.78003906 29.56394531 16.77539062 30.28710938 C16.76363177 32.01566163 16.74569704 33.7441699 16.7265625 35.47265625 C17.46648437 35.570625 18.20640625 35.66859375 18.96875 35.76953125 C22.0724643 36.56084651 23.49074744 37.59329365 25.8515625 39.72265625 C26.51414062 40.3053125 27.17671875 40.88796875 27.859375 41.48828125 C32.89176704 46.83651379 33.26783746 51.16572082 33.06640625 58.3125 C32.49145458 63.65888965 30.8978728 66.5547383 26.78515625 70.1875 C22.52743459 73.51997091 19.22042082 75.58319522 13.69917297 75.6265564 C12.88202316 75.63515686 12.06487335 75.64375732 11.22296143 75.65261841 C9.88343414 75.65900833 9.88343414 75.65900833 8.5168457 75.66552734 C7.57340805 75.67370483 6.6299704 75.68188232 5.65794373 75.69030762 C2.53108351 75.7151494 -0.5957313 75.73167567 -3.72265625 75.74609375 C-4.79111094 75.75141743 -5.85956562 75.7567411 -6.96039772 75.7622261 C-12.61706449 75.78895396 -18.27370923 75.808329 -23.93041992 75.82275391 C-28.60867892 75.83608853 -33.28650127 75.8639334 -37.96459961 75.90478516 C-43.61559575 75.95413271 -49.26619603 75.97887789 -54.91739845 75.98598099 C-57.06834037 75.99268885 -59.21927362 76.0078987 -61.37009239 76.0318718 C-64.38611005 76.0635671 -67.40060687 76.0635531 -70.41674805 76.05615234 C-71.29964508 76.07255768 -72.18254211 76.08896301 -73.0921936 76.10586548 C-79.06150876 76.0461293 -83.89012035 74.74714312 -88.2734375 70.47265625 C-88.98884106 68.30306053 -88.98884106 68.30306053 -89.2734375 66.47265625 C-89.9334375 66.47265625 -90.5934375 66.47265625 -91.2734375 66.47265625 C-91.5040787 60.82194686 -91.51538255 55.77179909 -89.2734375 50.47265625 C-85.51210469 46.54035377 -82.71636508 44.86143679 -77.2734375 44.47265625 C-77.180625 43.01859375 -77.180625 43.01859375 -77.0859375 41.53515625 C-76.17784827 35.31726751 -72.9684817 29.62857626 -68.2109375 25.53515625 C-63.0742628 21.92855486 -59.29307868 21.11350676 -53.0234375 20.84765625 C-51.90582031 20.78964844 -51.90582031 20.78964844 -50.765625 20.73046875 C-48.9352851 20.63660517 -47.10439607 20.55355907 -45.2734375 20.47265625 C-45.0775 19.84359375 -44.8815625 19.21453125 -44.6796875 18.56640625 C-41.49854434 9.46175514 -36.55859405 3.92811945 -27.9609375 -0.46484375 C-18.11602431 -5.02410496 -9.83780016 -4.56301067 0 0 Z " fill="#F8F8F8" transform="translate(143.2734375,59.52734375)"/>
<path d="M0 0 C2.31 4.62 4.62 9.24 7 14 C5.68 14.33 4.36 14.66 3 15 C3 18.3 3 21.6 3 25 C3.78761719 24.566875 4.57523438 24.13375 5.38671875 23.6875 C14.93122621 18.80794116 23.20245683 17.21750173 33.6875 20 C39.23344596 22.12989019 46.29432905 26.5886581 49 32 C53.13817057 30.0878798 56.61097699 27.44692791 60.26953125 24.75390625 C66.90877258 20.48921475 72.03063171 19.46873372 79.8125 19.5625 C81.14752563 19.57603516 81.14752563 19.57603516 82.50952148 19.58984375 C89.06459235 19.76296254 94.34115364 20.49548638 100 24 C101.38058594 24.82177734 101.38058594 24.82177734 102.7890625 25.66015625 C109.88804797 30.31946342 114.05245647 35.54352889 118 43 C118.53947266 43.92619141 118.53947266 43.92619141 119.08984375 44.87109375 C121.7500581 49.98311856 121.27272049 55.41428043 121 61 C121.73992187 61.24234375 122.47984375 61.4846875 123.2421875 61.734375 C129.57510685 64.6407006 134.53258497 71.61374934 137 78 C139.68821528 87.28656187 137.37419261 94.65450094 133 103 C130.50349105 106.51992255 128.06004081 108.92078594 124.4375 111.25 C123.67308594 111.75015625 122.90867188 112.2503125 122.12109375 112.765625 C118.90413225 114.63774256 116.31932553 115.1274322 112.66889954 115.15390015 C111.78443649 115.16250061 110.89997345 115.17110107 109.9887085 115.17996216 C109.0208844 115.18422211 108.0530603 115.18848206 107.0559082 115.19287109 C105.52370888 115.20513733 105.52370888 115.20513733 103.96055603 115.21765137 C100.5739704 115.24250023 97.1874267 115.25902095 93.80078125 115.2734375 C92.64406607 115.27876118 91.48735088 115.28408485 90.29558372 115.28956985 C84.17207883 115.31630034 78.04859431 115.33567485 71.92504883 115.35009766 C65.60434803 115.36673722 59.28416945 115.41151025 52.96366596 115.4624691 C48.10026968 115.49614856 43.23699719 115.50767596 38.3734951 115.51332474 C36.04392701 115.52003611 33.71436703 115.53525508 31.38491249 115.55921555 C28.11986555 115.59088085 24.85622504 115.59090106 21.59106445 115.58349609 C20.63336151 115.59990143 19.67565857 115.61630676 18.68893433 115.63320923 C10.65242424 115.55881086 6.08682765 112.7438468 0.1875 107.5 C-5.17197178 101.3748894 -5.52070934 96.55257455 -5.296875 88.609375 C-4.94037939 84.27513895 -4.11963112 81.7501166 -2 78 C-0.63807684 75.63686708 -0.63807684 75.63686708 0 73 C-0.98884377 70.66074863 -0.98884377 70.66074863 -2.75 68.5625 C-8.54985428 60.98745668 -8.84971957 53.27693838 -8 44 C-6.9819162 40.16721394 -5.59677511 36.62320456 -4 33 C-3.67 32.01 -3.34 31.02 -3 30 C-5.87413125 29.66602213 -5.87413125 29.66602213 -9 30 C-10.91256712 31.88077873 -10.91256712 31.88077873 -12 34 C-16.06225548 33.42176904 -18.84762346 32.10882263 -22.3125 29.9375 C-23.19550781 29.38964844 -24.07851563 28.84179688 -24.98828125 28.27734375 C-25.65214844 27.85582031 -26.31601562 27.43429688 -27 27 C-26.690625 26.236875 -26.38125 25.47375 -26.0625 24.6875 C-25.32106407 22.81210323 -24.63771783 20.91315348 -24 19 C-21.30000274 20.00285612 -18.90221511 21.05962493 -16.4375 22.5625 C-14.21853522 23.87112025 -12.50924843 24.53532436 -10 25 C-10.0309375 23.2984375 -10.0309375 23.2984375 -10.0625 21.5625 C-10 18 -10 18 -9 17 C-6.66702567 16.95907063 -4.33294775 16.95758277 -2 17 C-2.3609375 16.32453125 -2.721875 15.6490625 -3.09375 14.953125 C-3.5578125 14.06109375 -4.021875 13.1690625 -4.5 12.25 C-4.9640625 11.36828125 -5.428125 10.4865625 -5.90625 9.578125 C-7 7 -7 7 -7 3 C-2.92857143 0 -2.92857143 0 0 0 Z M55 41 C52.72015175 44.47691896 51.314985 48.055045 50 52 C48.9378125 52.01417969 47.875625 52.02835938 46.78125 52.04296875 C37.06099542 52.31412479 30.84498455 53.15501545 23.75 60.25 C20.54092693 65.29282911 18 69.95798109 18 76 C17.154375 76.04125 16.30875 76.0825 15.4375 76.125 C10.86056387 77.29003829 8.04571441 79.41581674 5 83 C3.41642882 87.75071355 3.90025796 93.01289803 4 98 C4.66 98 5.32 98 6 98 C6.185625 98.7425 6.37125 99.485 6.5625 100.25 C8.51151955 103.97855914 11.19021931 105.49897734 15 107 C18.23062175 107.54706781 21.39280452 107.54772157 24.66381836 107.51757812 C26.079851 107.52809204 26.079851 107.52809204 27.52449036 107.53881836 C30.62991174 107.55635296 33.73441387 107.54479049 36.83984375 107.53125 C39.00786005 107.53394643 41.17587516 107.53783012 43.34388733 107.54284668 C47.88228904 107.5487358 52.42037528 107.54019827 56.95874023 107.52148438 C62.76368074 107.49870914 68.56788086 107.51181304 74.37279415 107.53577423 C78.84849072 107.55025952 83.32401309 107.5456134 87.79971504 107.53526306 C89.93944957 107.53260263 92.07920014 107.53584137 94.21891594 107.54518127 C97.21529625 107.55539013 100.21049437 107.53978411 103.20678711 107.51757812 C104.08339996 107.52567505 104.96001282 107.53377197 105.8631897 107.54211426 C112.63697771 107.44955641 117.92986293 105.70894447 123.05859375 101.18359375 C123.51363281 100.60738281 123.96867187 100.03117187 124.4375 99.4375 C124.91058594 98.85871094 125.38367188 98.27992187 125.87109375 97.68359375 C129.28555057 92.59144534 128.50532688 85.84735391 128 80 C125.74363798 75.03600356 121.61750987 70.94714247 117 68 C114.36716568 67.30804631 114.36716568 67.30804631 112 67 C112.05800781 66.03320312 112.11601562 65.06640625 112.17578125 64.0703125 C112.4716772 55.53160092 111.91200884 49.24521304 107 42 C105.9171875 40.39125 105.9171875 40.39125 104.8125 38.75 C98.13743156 32.22326641 90.1040407 28.04364238 80.75 27.625 C69.82464756 27.90589539 62.19001877 32.98188035 55 41 Z " fill="#060606" transform="translate(48,28)"/>
<path d="M0 0 C21.12 0 42.24 0 64 0 C64.68104289 4.7673002 65.10457687 8.29480881 64.87890625 12.93359375 C64.83056641 13.99384766 64.78222656 15.05410156 64.73242188 16.14648438 C64.67634766 17.23251953 64.62027344 18.31855469 64.5625 19.4375 C64.51029297 20.55060547 64.45808594 21.66371094 64.40429688 22.81054688 C64.27540537 25.54070323 64.14047673 28.27041935 64 31 C67.01490557 32.00496852 69.04181692 32.10335303 72.1875 32.0625 C73.08855469 32.05347656 73.98960938 32.04445312 74.91796875 32.03515625 C75.60503906 32.02355469 76.29210937 32.01195312 77 32 C77.02686553 33.97909398 77.04633375 35.95828971 77.0625 37.9375 C77.07410156 39.03964844 77.08570312 40.14179687 77.09765625 41.27734375 C77 44 77 44 76 45 C73.98035801 45.07244053 71.95832876 45.08377188 69.9375 45.0625 C68.83277344 45.05347656 67.72804688 45.04445312 66.58984375 45.03515625 C65.73519531 45.02355469 64.88054687 45.01195312 64 45 C64.11859375 45.81984375 64.2371875 46.6396875 64.359375 47.484375 C64.48828125 48.56203125 64.6171875 49.6396875 64.75 50.75 C64.95882812 52.35101563 64.95882812 52.35101563 65.171875 53.984375 C65 57 65 57 63.015625 59.390625 C62.35046875 59.92171875 61.6853125 60.4528125 61 61 C57.25120362 59.75040121 55.79032462 57.79032462 53 55 C45.73838781 48.90233044 38.71558181 47.49992476 29.30078125 47.59765625 C24.93880341 48.12935296 21.7635083 49.66966281 18.0234375 51.90625 C16 53 16 53 13 53 C11.828125 47.140625 11.828125 47.140625 12 45 C13.984375 42.734375 13.984375 42.734375 16 41 C15.566875 40.22914062 15.13375 39.45828125 14.6875 38.6640625 C14.130625 37.66117188 13.57375 36.65828125 13 35.625 C12.443125 34.62726562 11.88625 33.62953125 11.3125 32.6015625 C10 30 10 30 10 28 C6.535 29.98 6.535 29.98 3 32 C4.01660441 34.73701187 5.08396756 37.13563991 6.625 39.625 C8 42 8 42 8 45 C4.535 45.495 4.535 45.495 1 46 C0.67 48.31 0.34 50.62 0 53 C-3.7602985 52.41892368 -6.53035032 51.34800504 -9.8125 49.4375 C-10.60269531 48.98246094 -11.39289062 48.52742188 -12.20703125 48.05859375 C-12.79871094 47.70925781 -13.39039063 47.35992187 -14 47 C-14.14308594 47.59296875 -14.28617188 48.1859375 -14.43359375 48.796875 C-15.14947394 51.5814021 -16.0725933 54.27960702 -17 57 C-19.64 57 -22.28 57 -25 57 C-25 53.04 -25 49.08 -25 45 C-21.04 45 -17.08 45 -13 45 C-13.020625 43.040625 -13.04125 41.08125 -13.0625 39.0625 C-13.08377188 37.04167124 -13.07244053 35.01964199 -13 33 C-12 32 -12 32 -9.27734375 31.90234375 C-6.18489583 31.93489583 -3.09244792 31.96744792 0 32 C0 27.71 0 23.42 0 19 C-3.96 19.33 -7.92 19.66 -12 20 C-12.33 23.96 -12.66 27.92 -13 32 C-16.96 32 -20.92 32 -25 32 C-25 27.71 -25 23.42 -25 19 C-21.04 19 -17.08 19 -13 19 C-13.04125 17.22625 -13.0825 15.4525 -13.125 13.625 C-13.1953125 10.6015625 -13.1953125 10.6015625 -13 8 C-11 6 -11 6 -8.3984375 5.8046875 C-7.40070312 5.82789063 -6.40296875 5.85109375 -5.375 5.875 C-3.87066406 5.90207031 -3.87066406 5.90207031 -2.3359375 5.9296875 C-1.56507812 5.95289063 -0.79421875 5.97609375 0 6 C0 4.02 0 2.04 0 0 Z " fill="#F7F7F7" transform="translate(38,0)"/>
<path d="M0 0 C1.64518616 0.97595123 1.64518616 0.97595123 3.3236084 1.97161865 C8.49382533 4.53953022 13.13640504 4.53744423 18.82226562 4.45410156 C19.87681946 4.45468567 20.93137329 4.45526978 22.0178833 4.45587158 C25.48101462 4.45309931 28.94327024 4.42204671 32.40625 4.390625 C34.81619802 4.38315959 37.22615213 4.37746808 39.6361084 4.37347412 C45.96224894 4.35824158 52.28801897 4.3189797 58.61401367 4.2746582 C65.07595814 4.23365447 71.53796279 4.21545218 78 4.1953125 C90.66682424 4.15248362 103.33339236 4.08503554 116 4 C115.67 5.65 115.34 7.3 115 9 C111.04 9.33 107.08 9.66 103 10 C102.67 13.96 102.34 17.92 102 22 C100.72125 22.20625 99.4425 22.4125 98.125 22.625 C95.91714215 23.10716711 95.91714215 23.10716711 94 24 C92.56673801 26.7993286 92.56673801 26.7993286 92 30 C91.0126546 31.67419438 90.01187895 33.34051852 89 35 C87.93991677 37.31108193 86.9751172 39.65085401 86 42 C85.505 42.99 85.505 42.99 85 44 C81.7 44 78.4 44 75 44 C75.33 41.03 75.66 38.06 76 35 C73.36 35.66 70.72 36.32 68 37 C67.814375 38.1446875 67.814375 38.1446875 67.625 39.3125 C67 42 67 42 65 45 C64.54605448 47.27912938 64.54605448 47.27912938 64.375 49.6875 C64.189375 51.8221875 64.189375 51.8221875 64 54 C59.71 54 55.42 54 51 54 C51 52.02 51 50.04 51 48 C47.04 48 43.08 48 39 48 C39 47.34 39 46.68 39 46 C38.01 45.505 38.01 45.505 37 45 C37.495 40.05 37.495 40.05 38 35 C35.69 35 33.38 35 31 35 C30.01 37.97 29.02 40.94 28 44 C24.7 44 21.4 44 18 44 C18.99 41.03 19.98 38.06 21 35 C19.4221875 35.2784375 19.4221875 35.2784375 17.8125 35.5625 C11.83531173 36.33791902 5.97566679 35.56021876 0 35 C0 30.71 0 26.42 0 22 C-4.29 22 -8.58 22 -13 22 C-13.09765625 12.72265625 -13.09765625 12.72265625 -13 10 C-12 9 -12 9 -9.27734375 8.90234375 C-7.62412109 8.91974609 -7.62412109 8.91974609 -5.9375 8.9375 C-4.28041016 8.95103516 -4.28041016 8.95103516 -2.58984375 8.96484375 C-1.73519531 8.97644531 -0.88054688 8.98804688 0 9 C0 6.03 0 3.06 0 0 Z " fill="#EAEAEA" transform="translate(51,138)"/>
<path d="M0 0 C12.54 0 25.08 0 38 0 C38 1.98 38 3.96 38 6 C37.21753906 6.06058594 36.43507812 6.12117187 35.62890625 6.18359375 C34.11103516 6.30927734 34.11103516 6.30927734 32.5625 6.4375 C31.55316406 6.51871094 30.54382813 6.59992187 29.50390625 6.68359375 C27.06359221 6.73211468 27.06359221 6.73211468 26 8 C25.76636119 9.84891946 25.58696365 11.70488031 25.4375 13.5625 C25.293125 15.356875 25.14875 17.15125 25 19 C21.04 19 17.08 19 13 19 C13 23.29 13 27.58 13 32 C16.96 32 20.92 32 25 32 C24.9690625 29.0609375 24.9690625 29.0609375 24.9375 26.0625 C24.91622812 24.04167124 24.92755947 22.01964199 25 20 C26 19 26 19 28.72265625 18.90234375 C31.81510417 18.93489583 34.90755208 18.96744792 38 19 C38 23.29 38 27.58 38 32 C32.06 32.495 32.06 32.495 26 33 C25.67 36.96 25.34 40.92 25 45 C21.04 45 17.08 45 13 45 C13 48.96 13 52.92 13 57 C14.629375 56.731875 16.25875 56.46375 17.9375 56.1875 C23.52154391 55.63341317 26.49688946 56.78472979 31.02734375 59.96875 C32.94529214 61.19197975 32.94529214 61.19197975 35.12890625 60.84375 C37.35804681 60.03760921 37.35804681 60.03760921 39 57 C42.125 56.8125 42.125 56.8125 45 57 C45 60.89113815 44.5176105 62.52016279 43.0625 66 C40.78202512 71.9711374 40.22169738 77.64836994 40 84 C37.36 84 34.72 84 32 84 C32 80.7 32 77.4 32 74 C29.69 74 27.38 74 25 74 C25 73.01 25 72.02 25 71 C21.04 71 17.08 71 13 71 C13.66 72.32 14.32 73.64 15 75 C15.25065631 78.02792822 15.08957617 80.95441028 15 84 C20.28 84 25.56 84 31 84 C31 84.33 31 84.66 31 85 C29.02 85 27.04 85 25 85 C25 88.63 25 92.26 25 96 C21.04 96 17.08 96 13 96 C13 100.29 13 104.58 13 109 C8.71 109 4.42 109 0 109 C0 73.03 0 37.06 0 0 Z " fill="#F9F9F9" transform="translate(0,0)"/>
<path d="M0 0 C3.96 0 7.92 0 12 0 C12 0.99 12 1.98 12 3 C14.31 3 16.62 3 19 3 C19.495 7.455 19.495 7.455 20 12 C22.31 12.33 24.62 12.66 27 13 C27.34611328 13.96099609 27.34611328 13.96099609 27.69921875 14.94140625 C29.35603682 19.33557592 30.90910901 23.13967061 33.875 26.8125 C34.57625 27.864375 35.2775 28.91625 36 30 C35.5 32.5 35.5 32.5 34 35 C30.093105 41.91219885 29.92309016 49.20081701 31 57 C32.55345235 60.21324221 34.40407333 62.56946478 37 65 C38 66 38 66 38.09765625 68.28515625 C38.06510417 70.85677083 38.03255208 73.42838542 38 76 C33.71 76 29.42 76 25 76 C25 72.04 25 68.08 25 64 C19.06 64.495 19.06 64.495 13 65 C12.67 68.63 12.34 72.26 12 76 C3.75 76 -4.5 76 -13 76 C-13 63.46 -13 50.92 -13 38 C-8.71 38 -4.42 38 0 38 C0 33.71 0 29.42 0 25 C3.96 25 7.92 25 12 25 C12 21.37 12 17.74 12 14 C10.39125 13.855625 8.7825 13.71125 7.125 13.5625 C2.25 13.125 2.25 13.125 0 12 C0 8.04 0 4.08 0 0 Z " fill="#F8F8F8" transform="translate(13,71)"/>
<path d="M0 0 C-0.33 1.32 -0.66 2.64 -1 4 C-4.96 4.33 -8.92 4.66 -13 5 C-13.33 8.96 -13.66 12.92 -14 17 C-15.27875 17.20625 -16.5575 17.4125 -17.875 17.625 C-20.08285785 18.10716711 -20.08285785 18.10716711 -22 19 C-23.43326199 21.7993286 -23.43326199 21.7993286 -24 25 C-24.9873454 26.67419438 -25.98812105 28.34051852 -27 30 C-28.06008323 32.31108193 -29.0248828 34.65085401 -30 37 C-30.495 37.99 -30.495 37.99 -31 39 C-34.3 39 -37.6 39 -41 39 C-40.67 36.03 -40.34 33.06 -40 30 C-42.64 30.66 -45.28 31.32 -48 32 C-48.12375 32.763125 -48.2475 33.52625 -48.375 34.3125 C-49 37 -49 37 -51 40 C-51.45394552 42.27912938 -51.45394552 42.27912938 -51.625 44.6875 C-51.74875 46.110625 -51.8725 47.53375 -52 49 C-56.29 49 -60.58 49 -65 49 C-65 47.02 -65 45.04 -65 43 C-68.96 43 -72.92 43 -77 43 C-77 42.34 -77 41.68 -77 41 C-77.66 40.67 -78.32 40.34 -79 40 C-77.76549204 35.91662753 -76.21208648 32.62782182 -74 29 C-73.28567622 27.37653687 -72.57387196 25.7516912 -71.89453125 24.11328125 C-70.02642212 19.69997541 -67.99366083 15.35768553 -66 11 C-62.7 11 -59.4 11 -56 11 C-56.66 12.98 -57.32 14.96 -58 17 C-56.02 17 -54.04 17 -52 17 C-52 11.72 -52 6.44 -52 1 C-50.6274707 0.97494385 -49.25494141 0.9498877 -47.84082031 0.92407227 C-42.74925375 0.82991053 -37.65782081 0.72971106 -32.56640625 0.62768555 C-30.362662 0.5843699 -28.15888492 0.54269241 -25.95507812 0.50268555 C-22.78765976 0.44490156 -19.62040614 0.38123024 -16.453125 0.31640625 C-15.46757629 0.29969376 -14.48202759 0.28298126 -13.46661377 0.26576233 C-12.5459613 0.24581711 -11.62530884 0.22587189 -10.67675781 0.20532227 C-9.46430389 0.18200584 -9.46430389 0.18200584 -8.22735596 0.15821838 C-5.98691549 0.06900644 -5.98691549 0.06900644 -3.83270264 -0.57533264 C-2 -1 -2 -1 0 0 Z " fill="#F3F3F3" transform="translate(167,143)"/>
<path d="M0 0 C4.29 0 8.58 0 13 0 C14.26374072 6.49525563 13.87018843 12.73180999 13.5 19.3125 C13.38049709 21.47499417 13.26566905 23.63775341 13.15625 25.80078125 C13.10275391 26.75122314 13.04925781 27.70166504 12.99414062 28.6809082 C12.82808615 31.02696591 12.82808615 31.02696591 14 33 C12.92325298 35.28258633 11.80453884 37.4356434 10.5625 39.625 C10.22412109 40.23601563 9.88574219 40.84703125 9.53710938 41.4765625 C8.69853808 42.988353 7.85017423 44.49470399 7 46 C5.35 45.34 3.7 44.68 2 44 C2 44.33 2 44.66 2 45 C-2.62 45 -7.24 45 -12 45 C-12 43.02 -12 41.04 -12 39 C-15.3 39 -18.6 39 -22 39 C-22 33.72 -22 28.44 -22 23 C-18.7 23 -15.4 23 -12 23 C-12 25.97 -12 28.94 -12 32 C-8.04 32 -4.08 32 0 32 C0 27.71 0 23.42 0 19 C-3.96 19 -7.92 19 -12 19 C-12.09765625 9.72265625 -12.09765625 9.72265625 -12 7 C-11 6 -11 6 -8.49609375 5.90234375 C-6.98208984 5.91974609 -6.98208984 5.91974609 -5.4375 5.9375 C-4.42558594 5.94652344 -3.41367188 5.95554687 -2.37109375 5.96484375 C-1.19740234 5.98224609 -1.19740234 5.98224609 0 6 C0 4.02 0 2.04 0 0 Z " fill="#F6F6F6" transform="translate(89,0)"/>
<path d="M0 0 C3.3 0 6.6 0 10 0 C9.34 1.98 8.68 3.96 8 6 C9.98 6 11.96 6 14 6 C14.33 6.99 14.66 7.98 15 9 C16.65 6.03 18.3 3.06 20 0 C22.97 0 25.94 0 29 0 C26.62459923 6.33440205 23.89988831 12.39319334 20.875 18.4375 C20.52630859 19.13552734 20.17761719 19.83355469 19.81835938 20.55273438 C18.3361576 23.48572325 16.82503911 26.26244133 15 29 C14.54605448 31.27912938 14.54605448 31.27912938 14.375 33.6875 C14.25125 35.110625 14.1275 36.53375 14 38 C9.71 38 5.42 38 1 38 C1 36.02 1 34.04 1 32 C-2.96 32 -6.92 32 -11 32 C-11 31.34 -11 30.68 -11 30 C-11.66 29.67 -12.32 29.34 -13 29 C-11.76549204 24.91662753 -10.21208648 21.62782182 -8 18 C-7.28567622 16.37653687 -6.57387196 14.7516912 -5.89453125 13.11328125 C-4.02642212 8.69997541 -1.99366083 4.35768553 0 0 Z " fill="#F4F4F4" transform="translate(101,154)"/>
<path d="M0 0 C5.38343562 2.33107989 9.49836664 6.49979695 12.69921875 11.37109375 C12.69921875 12.36109375 12.69921875 13.35109375 12.69921875 14.37109375 C11.85359375 14.54125 11.00796875 14.71140625 10.13671875 14.88671875 C0.98381211 16.84211244 -8.82447286 19.14434835 -14.609375 27.19140625 C-17.12222473 31.11353966 -19.3014305 35.16193427 -21.30078125 39.37109375 C-25.1088057 37.87508415 -26.99502682 35.71046224 -29.30078125 32.37109375 C-31.43579007 26.06374744 -31.22468437 18.09417663 -29.11328125 11.87109375 C-21.70365863 1.65092461 -12.68092828 -3.46626393 0 0 Z " fill="#F8F8F8" transform="translate(79.30078125,56.62890625)"/>
<path d="M0 0 C3.96 0 7.92 0 12 0 C12 0.99 12 1.98 12 3 C14.31 3 16.62 3 19 3 C19.33 5.97 19.66 8.94 20 12 C22.31 12.33 24.62 12.66 27 13 C27.50833591 14.24663331 28.00631145 15.49749387 28.5 16.75 C28.7784375 17.44609375 29.056875 18.1421875 29.34375 18.859375 C30 21 30 21 30 25 C27.69 25 25.38 25 23 25 C23.66 27.31 24.32 29.62 25 32 C23.26343905 33.22756895 21.51019623 34.43156853 19.75 35.625 C18.77546875 36.29789063 17.8009375 36.97078125 16.796875 37.6640625 C14 39 14 39 11.71875 38.375 C9.44981548 36.55985239 8.86260821 34.73159267 8 32 C8.99 31.34 9.98 30.68 11 30 C11.38394667 27.22737745 11.60342248 24.65676472 11.6875 21.875 C11.72166016 21.12089844 11.75582031 20.36679688 11.79101562 19.58984375 C11.87354278 17.72708799 11.93844711 15.86356674 12 14 C10.95199219 13.90912109 10.95199219 13.90912109 9.8828125 13.81640625 C8.97273438 13.73261719 8.06265625 13.64882812 7.125 13.5625 C6.22007813 13.48128906 5.31515625 13.40007812 4.3828125 13.31640625 C2 13 2 13 0 12 C0 8.04 0 4.08 0 0 Z " fill="#F0F0F0" transform="translate(13,71)"/>
<path d="M0 0 C3.3 0 6.6 0 10 0 C10 2.97 10 5.94 10 9 C13.96 9 17.92 9 22 9 C22 10.65 22 12.3 22 14 C22.66 14 23.32 14 24 14 C24.433125 12.6078125 24.433125 12.6078125 24.875 11.1875 C26 8 26 8 28 5 C31.64553172 6.2808625 33.16671013 7.16671013 36 10 C33.69 14.29 31.38 18.58 29 23 C27.35 22.34 25.7 21.68 24 21 C24 21.33 24 21.66 24 22 C19.38 22 14.76 22 10 22 C10 20.02 10 18.04 10 16 C6.7 16 3.4 16 0 16 C0 10.72 0 5.44 0 0 Z " fill="#EBEBEB" transform="translate(67,23)"/>
<path d="M0 0 C2.31 4.62 4.62 9.24 7 14 C5.68 14.33 4.36 14.66 3 15 C3.14179687 15.73605469 3.28359375 16.47210938 3.4296875 17.23046875 C4.61567606 25.10584892 4.61567606 25.10584892 2.73046875 27.84375 C1.0625 29.1875 1.0625 29.1875 -2 31 C-2.33 30.67 -2.66 30.34 -3 30 C-5.9157691 29.58297878 -5.9157691 29.58297878 -9 30 C-10.91256712 31.88077873 -10.91256712 31.88077873 -12 34 C-16.06225548 33.42176904 -18.84762346 32.10882263 -22.3125 29.9375 C-23.19550781 29.38964844 -24.07851563 28.84179688 -24.98828125 28.27734375 C-25.65214844 27.85582031 -26.31601562 27.43429688 -27 27 C-26.690625 26.236875 -26.38125 25.47375 -26.0625 24.6875 C-25.32106407 22.81210323 -24.63771783 20.91315348 -24 19 C-21.30000274 20.00285612 -18.90221511 21.05962493 -16.4375 22.5625 C-14.21853522 23.87112025 -12.50924843 24.53532436 -10 25 C-10.0309375 23.2984375 -10.0309375 23.2984375 -10.0625 21.5625 C-10 18 -10 18 -9 17 C-6.66702567 16.95907063 -4.33294775 16.95758277 -2 17 C-2.3609375 16.32453125 -2.721875 15.6490625 -3.09375 14.953125 C-3.5578125 14.06109375 -4.021875 13.1690625 -4.5 12.25 C-4.9640625 11.36828125 -5.428125 10.4865625 -5.90625 9.578125 C-7 7 -7 7 -7 3 C-2.92857143 0 -2.92857143 0 0 0 Z " fill="#E7E7E7" transform="translate(48,28)"/>
<path d="M0 0 C1.65322266 0.01740234 1.65322266 0.01740234 3.33984375 0.03515625 C4.44457031 0.04417969 5.54929687 0.05320312 6.6875 0.0625 C7.54214844 0.07410156 8.39679688 0.08570312 9.27734375 0.09765625 C9.30420928 2.07675023 9.3236775 4.05594596 9.33984375 6.03515625 C9.35144531 7.13730469 9.36304687 8.23945312 9.375 9.375 C9.27734375 12.09765625 9.27734375 12.09765625 8.27734375 13.09765625 C6.25770176 13.17009678 4.23567251 13.18142813 2.21484375 13.16015625 C1.11011719 13.15113281 0.00539063 13.14210938 -1.1328125 13.1328125 C-1.98746094 13.12121094 -2.84210938 13.10960937 -3.72265625 13.09765625 C-3.6040625 13.9175 -3.48546875 14.73734375 -3.36328125 15.58203125 C-3.234375 16.6596875 -3.10546875 17.73734375 -2.97265625 18.84765625 C-2.76382813 20.44867188 -2.76382813 20.44867188 -2.55078125 22.08203125 C-2.72265625 25.09765625 -2.72265625 25.09765625 -4.70703125 27.48828125 C-5.3721875 28.019375 -6.03734375 28.55046875 -6.72265625 29.09765625 C-10.46902898 27.84886534 -12.01279564 25.93970518 -14.72265625 23.09765625 C-15.48578125 22.33453125 -16.24890625 21.57140625 -17.03515625 20.78515625 C-17.59203125 20.22828125 -18.14890625 19.67140625 -18.72265625 19.09765625 C-18.06265625 19.09765625 -17.40265625 19.09765625 -16.72265625 19.09765625 C-16.74328125 18.14890625 -16.76390625 17.20015625 -16.78515625 16.22265625 C-16.72265625 13.09765625 -16.72265625 13.09765625 -15.72265625 11.09765625 C-13.72265625 12.09765625 -11.72265625 13.09765625 -9.72265625 14.09765625 C-9.47515625 13.43765625 -9.22765625 12.77765625 -8.97265625 12.09765625 C-3.99162093 0.14317148 -3.99162093 0.14317148 0 0 Z " fill="#EEEEEE" transform="translate(105.72265625,31.90234375)"/>
<path d="M0 0 C2.79947917 0.06510417 5.59895833 0.13020833 8.3984375 0.1953125 C8.3984375 4.4853125 8.3984375 8.7753125 8.3984375 13.1953125 C2.4584375 13.6903125 2.4584375 13.6903125 -3.6015625 14.1953125 C-3.9315625 18.1553125 -4.2615625 22.1153125 -4.6015625 26.1953125 C-8.5615625 26.1953125 -12.5215625 26.1953125 -16.6015625 26.1953125 C-16.6015625 21.9053125 -16.6015625 17.6153125 -16.6015625 13.1953125 C-12.6415625 13.1953125 -8.6815625 13.1953125 -4.6015625 13.1953125 C-4.6428125 11.4215625 -4.6840625 9.6478125 -4.7265625 7.8203125 C-4.796875 4.796875 -4.796875 4.796875 -4.6015625 2.1953125 C-2.6015625 0.1953125 -2.6015625 0.1953125 0 0 Z " fill="#F1F1F1" transform="translate(195.6015625,146.8046875)"/>
<path d="M0 0 C3.09244792 0.03255208 6.18489583 0.06510417 9.27734375 0.09765625 C9.27734375 4.05765625 9.27734375 8.01765625 9.27734375 12.09765625 C3.33734375 12.59265625 3.33734375 12.59265625 -2.72265625 13.09765625 C-3.05265625 17.05765625 -3.38265625 21.01765625 -3.72265625 25.09765625 C-7.68265625 25.42765625 -11.64265625 25.75765625 -15.72265625 26.09765625 C-16.38265625 25.10765625 -17.04265625 24.11765625 -17.72265625 23.09765625 C-17.06265625 23.09765625 -16.40265625 23.09765625 -15.72265625 23.09765625 C-15.73425781 22.38738281 -15.74585938 21.67710938 -15.7578125 20.9453125 C-15.76683594 20.02621094 -15.77585938 19.10710937 -15.78515625 18.16015625 C-15.79675781 17.24363281 -15.80835938 16.32710937 -15.8203125 15.3828125 C-15.72265625 13.09765625 -15.72265625 13.09765625 -14.72265625 12.09765625 C-12.86978123 12.02539123 -11.01431747 12.01384405 -9.16015625 12.03515625 C-8.14824219 12.04417969 -7.13632813 12.05320312 -6.09375 12.0625 C-4.92005859 12.07990234 -4.92005859 12.07990234 -3.72265625 12.09765625 C-3.73425781 11.31519531 -3.74585938 10.53273438 -3.7578125 9.7265625 C-3.76683594 8.71464844 -3.77585938 7.70273438 -3.78515625 6.66015625 C-3.79675781 5.65082031 -3.80835938 4.64148438 -3.8203125 3.6015625 C-3.68353101 0.09448515 -3.5276627 0.12653023 0 0 Z " fill="#F0F0F0" transform="translate(194.72265625,70.90234375)"/>
<path d="M0 0 C2.97 0 5.94 0 9 0 C7.94904849 4.20380603 6.19974894 7.56084824 4.125 11.3125 C1.47325579 16.12546431 -0.89332257 20.92252895 -3 26 C-3.33 26.66 -3.66 27.32 -4 28 C-7.3 28 -10.6 28 -14 28 C-9.73774164 18.4260636 -5.01206871 9.19727329 0 0 Z " fill="#0A0A0A" transform="translate(140,154)"/>
<path d="M0 0 C3.3 0 6.6 0 10 0 C9.39671875 1.26714844 8.7934375 2.53429687 8.171875 3.83984375 C7.36452464 5.53903462 6.5572363 7.23825494 5.75 8.9375 C5.35425781 9.76830078 4.95851563 10.59910156 4.55078125 11.45507812 C1.94944948 16.93493275 -0.55717697 22.44762014 -3 28 C-6.3 28 -9.6 28 -13 28 C-9.20802931 18.37422824 -4.70696251 9.20368848 0 0 Z " fill="#090909" transform="translate(82,154)"/>
<path d="M0 0 C2.97 0 5.94 0 9 0 C5.62523617 8.99937022 1.36387861 17.45199063 -3 26 C-3.33 26.66 -3.66 27.32 -4 28 C-7.3 28 -10.6 28 -14 28 C-12.6080434 25.01896876 -11.21155304 22.04019926 -9.8125 19.0625 C-9.42513672 18.23169922 -9.03777344 17.40089844 -8.63867188 16.54492188 C-5.97695178 10.89151639 -3.08678135 5.43339311 0 0 Z " fill="#060606" transform="translate(121,154)"/>
<path d="M0 0 C3.3 0 6.6 0 10 0 C6.62523617 8.99937022 2.36387861 17.45199063 -2 26 C-2.33 26.66 -2.66 27.32 -3 28 C-6.3 28 -9.6 28 -13 28 C-12.67386719 27.35933594 -12.34773438 26.71867187 -12.01171875 26.05859375 C-9.5047965 21.09651461 -7.1581422 16.12558773 -5 11 C-3.34798244 7.32663166 -1.67567042 3.66263138 0 0 Z " fill="#070707" transform="translate(101,154)"/>
<path d="M0 0 C3.96 0 7.92 0 12 0 C12 3.96 12 7.92 12 12 C40.05 12 68.1 12 97 12 C97 12.33 97 12.66 97 13 C84.25694376 13.04626362 71.51390738 13.08183873 58.77078438 13.10362434 C52.85415819 13.11407834 46.9375893 13.12826694 41.02099609 13.15087891 C35.31518869 13.17254975 29.60943653 13.18455644 23.90359116 13.18975449 C21.72260544 13.19346062 19.54162287 13.20069737 17.36066055 13.21146011 C14.3147545 13.22589852 11.26907909 13.22798116 8.22314453 13.22705078 C7.31396271 13.23424133 6.40478088 13.24143188 5.4680481 13.24884033 C-0.77189568 13.22810432 -0.77189568 13.22810432 -3 11 C-2.01 11 -1.02 11 0 11 C0 7.37 0 3.74 0 0 Z " fill="#CACACA" transform="translate(64,122)"/>
<path d="M0 0 C3.96 0 7.92 0 12 0 C12 4.29 12 8.58 12 13 C15.3 13.33 18.6 13.66 22 14 C22 14.33 22 14.66 22 15 C20.71416016 15.14695312 20.71416016 15.14695312 19.40234375 15.296875 C12.59121548 16.18762007 7.73985829 17.25661416 2 21 C1.01 21 0.02 21 -1 21 C-2.05699482 15.71502591 -2.05699482 15.71502591 -2 13 C-0.0625 10.5 -0.0625 10.5 2 9 C1.484375 7.88625 0.96875 6.7725 0.4375 5.625 C-0.036875 4.42875 -0.51125 3.2325 -1 2 C-0.67 1.34 -0.34 0.68 0 0 Z " fill="#F0F0F0" transform="translate(52,32)"/>
<path d="M0 0 C2 2 2 2 2.125 5.625 C2.08375 6.73875 2.0425 7.8525 2 9 C-3.94 9.495 -3.94 9.495 -10 10 C-10.33 13.96 -10.66 17.92 -11 22 C-14.96 22 -18.92 22 -23 22 C-23.1953125 15.1640625 -23.1953125 15.1640625 -23 13 C-22.34 12.34 -21.68 11.68 -21 11 C-21.33 10.34 -21.66 9.68 -22 9 C-18.18384532 6.52954197 -14.15255752 6.56168088 -9.75 6.375 C-9.00492188 6.33632812 -8.25984375 6.29765625 -7.4921875 6.2578125 C-5.6618476 6.16394892 -3.83095857 6.08090282 -2 6 C-1.34 4.02 -0.68 2.04 0 0 Z " fill="#EDEDED" transform="translate(100,74)"/>
<path d="M0 0 C-0.99 0.495 -0.99 0.495 -2 1 C-2 4.3 -2 7.6 -2 11 C-5.96 11 -9.92 11 -14 11 C-14 7.04 -14 3.08 -14 -1 C-17.63 -0.67 -21.26 -0.34 -25 0 C-17.19478737 -5.20347509 -8.14181447 -3.68685938 0 0 Z " fill="#E6E6E6" transform="translate(142,59)"/>
<path d="M0 0 C4.29 0 8.58 0 13 0 C13 4.29 13 8.58 13 13 C6.565 13.495 6.565 13.495 0 14 C0 9.38 0 4.76 0 0 Z " fill="#FEFEFE" transform="translate(191,32)"/>
<path d="M0 0 C3.09244792 0.03255208 6.18489583 0.06510417 9.27734375 0.09765625 C9.27734375 4.38765625 9.27734375 8.67765625 9.27734375 13.09765625 C-1.1575386 14.44805279 -1.1575386 14.44805279 -3.59375 12.9375 C-5.14252625 10.41336985 -4.86240969 8.87886125 -4.47265625 5.97265625 C-4.364375 5.08320313 -4.25609375 4.19375 -4.14453125 3.27734375 C-3.52246233 0.063321 -3.35072198 0.12018372 0 0 Z " fill="#FEFEFE" transform="translate(105.72265625,18.90234375)"/>
<path d="M0 0 C4.29 0 8.58 0 13 0 C13 4.29 13 8.58 13 13 C8.71 13 4.42 13 0 13 C0 8.71 0 4.42 0 0 Z " fill="#FEFEFE" transform="translate(38,160)"/>
<path d="M0 0 C4.29 0 8.58 0 13 0 C13 4.29 13 8.58 13 13 C8.71 13 4.42 13 0 13 C0 8.71 0 4.42 0 0 Z " fill="#F1F1F1" transform="translate(0,160)"/>
<path d="M0 0 C3.35286458 0.03255208 6.70572917 0.06510417 10.05859375 0.09765625 C9.72859375 4.38765625 9.39859375 8.67765625 9.05859375 13.09765625 C4.76859375 13.09765625 0.47859375 13.09765625 -3.94140625 13.09765625 C-4.0390625 3.8203125 -4.0390625 3.8203125 -3.94140625 1.09765625 C-2.94140625 0.09765625 -2.94140625 0.09765625 0 0 Z " fill="#FEFEFE" transform="translate(54.94140625,146.90234375)"/>
<path d="M0 0 C4.29 0 8.58 0 13 0 C13 4.29 13 8.58 13 13 C8.71 13 4.42 13 0 13 C0 8.71 0 4.42 0 0 Z " fill="#FEFEFE" transform="translate(0,147)"/>
<path d="M0 0 C3.09244792 0.03255208 6.18489583 0.06510417 9.27734375 0.09765625 C9.27734375 4.38765625 9.27734375 8.67765625 9.27734375 13.09765625 C2.84234375 13.59265625 2.84234375 13.59265625 -3.72265625 14.09765625 C-3.8203125 4.0390625 -3.8203125 4.0390625 -3.72265625 1.09765625 C-2.72265625 0.09765625 -2.72265625 0.09765625 0 0 Z " fill="#FEFEFE" transform="translate(105.72265625,95.90234375)"/>
<path d="M0 0 C3.09244792 0.03255208 6.18489583 0.06510417 9.27734375 0.09765625 C9.27734375 4.38765625 9.27734375 8.67765625 9.27734375 13.09765625 C2.84234375 13.59265625 2.84234375 13.59265625 -3.72265625 14.09765625 C-3.8203125 4.0390625 -3.8203125 4.0390625 -3.72265625 1.09765625 C-2.72265625 0.09765625 -2.72265625 0.09765625 0 0 Z " fill="#FEFEFE" transform="translate(194.72265625,82.90234375)"/>
<path d="M0 0 C4.29 0 8.58 0 13 0 C13 4.29 13 8.58 13 13 C8.71 13 4.42 13 0 13 C0 8.71 0 4.42 0 0 Z " fill="#FEFEFE" transform="translate(153,19)"/>
<path d="M0 0 C3.09244792 0.03255208 6.18489583 0.06510417 9.27734375 0.09765625 C9.27734375 4.38765625 9.27734375 8.67765625 9.27734375 13.09765625 C4.98734375 13.09765625 0.69734375 13.09765625 -3.72265625 13.09765625 C-3.8203125 3.8203125 -3.8203125 3.8203125 -3.72265625 1.09765625 C-2.72265625 0.09765625 -2.72265625 0.09765625 0 0 Z " fill="#FEFEFE" transform="translate(194.72265625,159.90234375)"/>
<path d="M0 0 C3.09244792 0.03255208 6.18489583 0.06510417 9.27734375 0.09765625 C9.27734375 4.38765625 9.27734375 8.67765625 9.27734375 13.09765625 C4.98734375 13.09765625 0.69734375 13.09765625 -3.72265625 13.09765625 C-3.8203125 3.8203125 -3.8203125 3.8203125 -3.72265625 1.09765625 C-2.72265625 0.09765625 -2.72265625 0.09765625 0 0 Z " fill="#FEFEFE" transform="translate(156.72265625,146.90234375)"/>
<path d="M0 0 C3.09244792 0.03255208 6.18489583 0.06510417 9.27734375 0.09765625 C9.27734375 4.38765625 9.27734375 8.67765625 9.27734375 13.09765625 C4.98734375 13.09765625 0.69734375 13.09765625 -3.72265625 13.09765625 C-3.8203125 3.8203125 -3.8203125 3.8203125 -3.72265625 1.09765625 C-2.72265625 0.09765625 -2.72265625 0.09765625 0 0 Z " fill="#FEFEFE" transform="translate(3.72265625,95.90234375)"/>
<path d="M0 0 C2 1 4 2 6 3 C6.33 2.34 6.66 1.68 7 1 C8.65 1.33 10.3 1.66 12 2 C12.27672202 3.91299138 12.52042815 5.83077936 12.75 7.75 C12.95882812 9.35101563 12.95882812 9.35101563 13.171875 10.984375 C13 14 13 14 11.015625 16.390625 C10.35046875 16.92171875 9.6853125 17.4528125 9 18 C5.25362727 16.75120909 3.70986061 14.84204893 1 12 C0.236875 11.236875 -0.52625 10.47375 -1.3125 9.6875 C-1.869375 9.130625 -2.42625 8.57375 -3 8 C-2.34 8 -1.68 8 -1 8 C-1.020625 7.05125 -1.04125 6.1025 -1.0625 5.125 C-1 2 -1 2 0 0 Z " fill="#EAEAEA" transform="translate(90,43)"/>
<path d="M0 0 C4.29 0 8.58 0 13 0 C13.09765625 9.27734375 13.09765625 9.27734375 13 12 C12 13 12 13 9.27734375 13.09765625 C6.18489583 13.06510417 3.09244792 13.03255208 0 13 C0 8.71 0 4.42 0 0 Z " fill="#F1F1F1" transform="translate(0,32)"/>
<path d="M0 0 C1.4025 -0.020625 2.805 -0.04125 4.25 -0.0625 C5.43335938 -0.07990234 5.43335938 -0.07990234 6.640625 -0.09765625 C9 0 9 0 13 1 C13 4.96 13 8.92 13 13 C8.71 13 4.42 13 0 13 C0 8.71 0 4.42 0 0 Z " fill="#FEFEFE" transform="translate(153,96)"/>
<path d="M0 0 C1.65322266 0.01740234 1.65322266 0.01740234 3.33984375 0.03515625 C4.99693359 0.04869141 4.99693359 0.04869141 6.6875 0.0625 C7.54214844 0.07410156 8.39679688 0.08570312 9.27734375 0.09765625 C9.27734375 3.72765625 9.27734375 7.35765625 9.27734375 11.09765625 C8.28734375 11.59265625 8.28734375 11.59265625 7.27734375 12.09765625 C4.65234375 10.66015625 4.65234375 10.66015625 2.27734375 9.09765625 C1.98859375 9.84015625 1.69984375 10.58265625 1.40234375 11.34765625 C0.45431731 13.66505422 -0.57111536 15.8768274 -1.72265625 18.09765625 C-2.38265625 18.09765625 -3.04265625 18.09765625 -3.72265625 18.09765625 C-3.74949937 15.28509344 -3.76941813 12.47278384 -3.78515625 9.66015625 C-3.79353516 8.85771484 -3.80191406 8.05527344 -3.81054688 7.22851562 C-3.81917055 5.18470404 -3.77493775 3.14081723 -3.72265625 1.09765625 C-2.72265625 0.09765625 -2.72265625 0.09765625 0 0 Z " fill="#F0F0F0" transform="translate(92.72265625,18.90234375)"/>
<path d="M0 0 C3.96 0 7.92 0 12 0 C12 4.29 12 8.58 12 13 C8.04 13 4.08 13 0 13 C0 8.71 0 4.42 0 0 Z " fill="#FEFEFE" transform="translate(13,160)"/>
<path d="M0 0 C3.09244792 0.03255208 6.18489583 0.06510417 9.27734375 0.09765625 C9.60734375 4.05765625 9.93734375 8.01765625 10.27734375 12.09765625 C5.65734375 12.09765625 1.03734375 12.09765625 -3.72265625 12.09765625 C-3.8203125 3.6015625 -3.8203125 3.6015625 -3.72265625 1.09765625 C-2.72265625 0.09765625 -2.72265625 0.09765625 0 0 Z " fill="#F0F0F0" transform="translate(92.72265625,121.90234375)"/>
<path d="M0 0 C6.9566637 0.14960567 11.36124638 1.51106969 16.41796875 6.31640625 C21.375 11.68899701 21.375 11.68899701 21.375 15.375 C16.425 15.045 11.475 14.715 6.375 14.375 C6.375 10.415 6.375 6.455 6.375 2.375 C1.755 2.375 -2.865 2.375 -7.625 2.375 C-4.98965495 -0.26034505 -3.67340007 0.04649874 0 0 Z " fill="#E4E4E4" transform="translate(70.625,55.625)"/>
<path d="M0 0 C3.96 0 7.92 0 12 0 C12 4.29 12 8.58 12 13 C8.04 13 4.08 13 0 13 C0 8.71 0 4.42 0 0 Z " fill="#F1F1F1" transform="translate(179,32)"/>
<path d="M0 0 C3.96 0 7.92 0 12 0 C12 4.29 12 8.58 12 13 C8.04 13 4.08 13 0 13 C0 8.71 0 4.42 0 0 Z " fill="#F1F1F1" transform="translate(115,19)"/>
<path d="M0 0 C3.09244792 0.03255208 6.18489583 0.06510417 9.27734375 0.09765625 C9.27734375 4.05765625 9.27734375 8.01765625 9.27734375 12.09765625 C4.98734375 12.09765625 0.69734375 12.09765625 -3.72265625 12.09765625 C-3.8203125 3.6015625 -3.8203125 3.6015625 -3.72265625 1.09765625 C-2.72265625 0.09765625 -2.72265625 0.09765625 0 0 Z " fill="#F0F0F0" transform="translate(143.72265625,121.90234375)"/>
<path d="M0 0 C1.02408568 0.9753197 2.01834406 1.98198643 3 3 C3.598125 3.61875 4.19625 4.2375 4.8125 4.875 C6 7 6 7 5.3125 9.4375 C4.6628125 10.7059375 4.6628125 10.7059375 4 12 C3.62875 12.928125 3.2575 13.85625 2.875 14.8125 C2.58625 15.534375 2.2975 16.25625 2 17 C1.34 16.34 0.68 15.68 0 15 C-2.66949409 14.75684344 -2.66949409 14.75684344 -5.625 14.875 C-6.62789062 14.89304687 -7.63078125 14.91109375 -8.6640625 14.9296875 C-9.82035156 14.96449219 -9.82035156 14.96449219 -11 15 C-10.62890625 13.078125 -10.62890625 13.078125 -10 11 C-7.9375 9.75 -7.9375 9.75 -6 9 C-6.33 6.69 -6.66 4.38 -7 2 C-4.69 2 -2.38 2 0 2 C0 1.34 0 0.68 0 0 Z " fill="#E8E8E8" transform="translate(43,94)"/>
<path d="M0 0 C3.96 0 7.92 0 12 0 C12 5 12 5 10.5 6.8125 C10.005 7.204375 9.51 7.59625 9 8 C10.78907722 11.75151144 10.78907722 11.75151144 14.1875 13.8125 C14.785625 13.874375 15.38375 13.93625 16 14 C15.01 14.66 14.02 15.32 13 16 C12.01 15.34 11.02 14.68 10 14 C6.67401793 13.44479669 3.36692991 13.26235817 0 13 C0 8.71 0 4.42 0 0 Z " fill="#EAEAEA" transform="translate(13,96)"/>
<path d="M0 0 C3.96 0 7.92 0 12 0 C12.33 3.96 12.66 7.92 13 12 C8.71 12 4.42 12 0 12 C0 8.04 0 4.08 0 0 Z " fill="#F0F0F0" transform="translate(115,122)"/>
<path d="M0 0 C3.96 0 7.92 0 12 0 C12 3.96 12 7.92 12 12 C8.04 12 4.08 12 0 12 C0 8.04 0 4.08 0 0 Z " fill="#F0F0F0" transform="translate(179,135)"/>
<path d="M0 0 C3.96 0 7.92 0 12 0 C12 3.96 12 7.92 12 12 C8.04 12 4.08 12 0 12 C0 8.04 0 4.08 0 0 Z " fill="#F0F0F0" transform="translate(13,122)"/>
<path d="M0 0 C3.96 0 7.92 0 12 0 C12 3.96 12 7.92 12 12 C8.04 12 4.08 12 0 12 C0 8.04 0 4.08 0 0 Z " fill="#F0F0F0" transform="translate(77,109)"/>
<path d="M0 0 C3.96 0 7.92 0 12 0 C12 3.96 12 7.92 12 12 C8.04 12 4.08 12 0 12 C0 8.04 0 4.08 0 0 Z " fill="#F0F0F0" transform="translate(115,71)"/>
<path d="M0 0 C3.96 0 7.92 0 12 0 C12 3.96 12 7.92 12 12 C8.04 12 4.08 12 0 12 C0 8.04 0 4.08 0 0 Z " fill="#F0F0F0" transform="translate(179,58)"/>
<path d="M0 0 C2 2 2 2 2.1953125 4.1640625 C2.13020833 6.44270833 2.06510417 8.72135417 2 11 C5.96 11 9.92 11 14 11 C14.33 11.66 14.66 12.32 15 13 C13.78515625 15.6015625 13.78515625 15.6015625 12.0625 18.625 C11.49660156 19.62789062 10.93070313 20.63078125 10.34765625 21.6640625 C9.90292969 22.43492188 9.45820312 23.20578125 9 24 C5.24691864 22.28475527 3.36585259 20.4264072 1 17 C-0.24270912 13.4471265 -0.09984099 9.98409911 -0.0625 6.25 C-0.05347656 5.07953125 -0.04445312 3.9090625 -0.03515625 2.703125 C-0.02355469 1.81109375 -0.01195312 0.9190625 0 0 Z " fill="#EAEAEA" transform="translate(49,72)"/>
<path d="M0 0 C2.97 0.33 5.94 0.66 9 1 C8.1979917 7.21556431 5.71643466 13.76868433 1 18 C0.67 16.68 0.34 15.36 0 14 C-1.98 14 -3.96 14 -6 14 C-4.50111257 9.00370856 -2.38829052 4.61736167 0 0 Z " fill="#EFEFEF" transform="translate(89,159)"/>
<path d="M0 0 C3.64553172 1.2808625 5.16671013 2.16671013 8 5 C4.535 11.435 4.535 11.435 1 18 C-0.32 17.34 -1.64 16.68 -3 16 C-4.3242287 15.63215869 -5.65613912 15.28797019 -7 15 C-6.31238981 11.34435091 -4.74550455 8.48132728 -2.9375 5.25 C-2.11572266 3.77273437 -2.11572266 3.77273437 -1.27734375 2.265625 C-0.64505859 1.14414062 -0.64505859 1.14414062 0 0 Z " fill="#101010" transform="translate(95,28)"/>
<path d="M0 0 C2.64 0 5.28 0 8 0 C7.44676962 6.50045699 5.72924341 13.27075659 1 18 C0.67 16.35 0.34 14.7 0 13 C-2.31 13.66 -4.62 14.32 -7 15 C-5.45454854 9.52067211 -2.84456788 4.88570819 0 0 Z " fill="#EBEBEB" transform="translate(127,160)"/>
<path d="M0 0 C2.97 0 5.94 0 9 0 C9 4.95 9 9.9 9 15 C6.03 15 3.06 15 0 15 C0 10.05 0 5.1 0 0 Z " fill="#020202" transform="translate(67,23)"/>
<path d="M0 0 C3.62276315 1.3255581 6.63505348 2.94346955 9.8125 5.125 C10.60269531 5.66382813 11.39289062 6.20265625 12.20703125 6.7578125 C13.09455078 7.37269531 13.09455078 7.37269531 14 8 C13.01 10.31 12.02 12.62 11 15 C5.68972746 13.53967505 1.53669968 11.01679014 -3 8 C-2.690625 7.236875 -2.38125 6.47375 -2.0625 5.6875 C-1.32106407 3.81210323 -0.63771783 1.91315348 0 0 Z " fill="#0B0B0B" transform="translate(24,47)"/>
<path d="M0 0 C2.31 4.62 4.62 9.24 7 14 C5.02 14.99 3.04 15.98 1 17 C-2.76382187 15.74539271 -3.25041838 14.47381388 -5.25 11.125 C-5.79140625 10.24070312 -6.3328125 9.35640625 -6.890625 8.4453125 C-8 6 -8 6 -7 3 C-2.66666667 0 -2.66666667 0 0 0 Z " fill="#0C0C0C" transform="translate(48,28)"/>
<path d="M0 0 C1.75 2.3125 1.75 2.3125 3 5 C1.75272425 8.74182726 0.49563103 9.28306091 -2.8125 11.3125 C-3.68519531 11.86550781 -4.55789062 12.41851562 -5.45703125 12.98828125 C-8 14 -8 14 -10.19921875 13.48046875 C-12.4951103 11.59295704 -13.11595995 9.79946015 -14 7 C-12.23462904 5.82508418 -10.46250287 4.66031316 -8.6875 3.5 C-7.70136719 2.8503125 -6.71523438 2.200625 -5.69921875 1.53125 C-3 0 -3 0 0 0 Z " fill="#090909" transform="translate(35,96)"/>
<path d="M0 0 C2.31 0 4.62 0 7 0 C7.92718689 3.08136961 8.14268368 4.61671247 7.00390625 7.67578125 C6.52824219 8.54589844 6.05257812 9.41601562 5.5625 10.3125 C5.08941406 11.19550781 4.61632812 12.07851562 4.12890625 12.98828125 C3.57009766 13.98408203 3.57009766 13.98408203 3 15 C2.67 14.34 2.34 13.68 2 13 C-0.64 13 -3.28 13 -6 13 C-4.58707905 8.1725201 -2.57025846 4.2837641 0 0 Z " fill="#E5E5E5" transform="translate(108,160)"/>
<path d="M0 0 C4.95 0 9.9 0 15 0 C15 2.64 15 5.28 15 8 C10.05 8 5.1 8 0 8 C0 5.36 0 2.72 0 0 Z " fill="#090909" transform="translate(16,75)"/>
<path d="M0 0 C3.35286458 0.03255208 6.70572917 0.06510417 10.05859375 0.09765625 C9.72859375 4.38765625 9.39859375 8.67765625 9.05859375 13.09765625 C7.07859375 13.09765625 5.09859375 13.09765625 3.05859375 13.09765625 C3.93359375 8.34765625 3.93359375 8.34765625 5.05859375 6.09765625 C2.08859375 6.09765625 -0.88140625 6.09765625 -3.94140625 6.09765625 C-3.98412725 4.4315372 -3.98204457 2.7638274 -3.94140625 1.09765625 C-2.94140625 0.09765625 -2.94140625 0.09765625 0 0 Z " fill="#FAFAFA" transform="translate(105.94140625,146.90234375)"/>
<path d="M0 0 C2.45391569 3.68087353 2.22802759 6.44355588 2.125 10.6875 C2.11597656 11.38939453 2.10695312 12.09128906 2.09765625 12.81445312 C2.07413704 14.54311525 2.03826713 16.27160145 2 18 C3.65 18.33 5.3 18.66 7 19 C2.73499324 20.42166892 -0.55353474 19.57997373 -5 19 C-5 15.04 -5 11.08 -5 7 C-3.35 6.67 -1.7 6.34 0 6 C0 4.02 0 2.04 0 0 Z " fill="#E0E0E0" transform="translate(158,77)"/>
<path d="M0 0 C3.96 0 7.92 0 12 0 C12 0.66 12 1.32 12 2 C12.99 2.33 13.98 2.66 15 3 C14.48050781 3.24234375 13.96101563 3.4846875 13.42578125 3.734375 C8.27368195 6.21043012 4.0690378 8.9309622 0 13 C0 8.71 0 4.42 0 0 Z " fill="#ECECEC" transform="translate(64,71)"/>
<path d="M0 0 C3.96 0 7.92 0 12 0 C12 3.3 12 6.6 12 10 C4.5 7 4.5 7 -3 4 C-2.34 3.67 -1.68 3.34 -1 3 C-0.67 2.01 -0.34 1.02 0 0 Z " fill="#E8E8E8" transform="translate(141,45)"/>
<path d="M0 0 C3.96 0 7.92 0 12 0 C12 0.99 12 1.98 12 3 C13.98 3 15.96 3 18 3 C18 3.33 18 3.66 18 4 C13.05 4 8.1 4 3 4 C3 6.64 3 9.28 3 12 C7.95 12 12.9 12 18 12 C18 12.33 18 12.66 18 13 C15.37493198 13.02690844 12.75013827 13.04679404 10.125 13.0625 C9.37863281 13.07087891 8.63226563 13.07925781 7.86328125 13.08789062 C2.2265625 13.11328125 2.2265625 13.11328125 0 12 C0 8.04 0 4.08 0 0 Z " fill="#D1D1D1" transform="translate(13,71)"/>
<path d="M0 0 C4.29 0 8.58 0 13 0 C13.33 1.98 13.66 3.96 14 6 C9.38 6 4.76 6 0 6 C0 4.02 0 2.04 0 0 Z " fill="#EBEBEB" transform="translate(153,186)"/>
<path d="M0 0 C3.96 0 7.92 0 12 0 C12 1.32 12 2.64 12 4 C9.03 4 6.06 4 3 4 C3 6.97 3 9.94 3 13 C2.01 13 1.02 13 0 13 C0 8.71 0 4.42 0 0 Z " fill="#E4E4E4" transform="translate(64,19)"/>
<path d="M0 0 C3.96 0 7.92 0 12 0 C12 1.98 12 3.96 12 6 C8.04 6 4.08 6 0 6 C0 4.02 0 2.04 0 0 Z " fill="#EBEBEB" transform="translate(179,186)"/>
<path d="M0 0 C3.96 0 7.92 0 12 0 C12 1.98 12 3.96 12 6 C8.04 6 4.08 6 0 6 C0 4.02 0 2.04 0 0 Z " fill="#EDEDED" transform="translate(128,186)"/>
<path d="M0 0 C3.96 0 7.92 0 12 0 C12 1.98 12 3.96 12 6 C8.04 6 4.08 6 0 6 C0 4.02 0 2.04 0 0 Z " fill="#F0F0F0" transform="translate(77,186)"/>
<path d="M0 0 C3.96 0 7.92 0 12 0 C12 1.98 12 3.96 12 6 C8.04 6 4.08 6 0 6 C0 4.02 0 2.04 0 0 Z " fill="#FFFFFF" transform="translate(179,0)"/>
<path d="M0 0 C3.96 0 7.92 0 12 0 C12 1.98 12 3.96 12 6 C8.04 6 4.08 6 0 6 C0 4.02 0 2.04 0 0 Z " fill="#F0F0F0" transform="translate(115,0)"/>
<path d="M0 0 C3.96 0 7.92 0 12 0 C12 1.98 12 3.96 12 6 C8.04 6 4.08 6 0 6 C0 4.02 0 2.04 0 0 Z " fill="#F0F0F0" transform="translate(64,0)"/>
<path d="M0 0 C3.96 0 7.92 0 12 0 C12 1.98 12 3.96 12 6 C8.04 6 4.08 6 0 6 C0 4.02 0 2.04 0 0 Z " fill="#F0F0F0" transform="translate(13,0)"/>
<path d="M0 0 C7.71428571 6.14285714 7.71428571 6.14285714 9 11 C8 12 8 12 6.15234375 12.09765625 C4.1015625 12.06510417 2.05078125 12.03255208 0 12 C0 8.04 0 4.08 0 0 Z " fill="#ECECEC" transform="translate(166,97)"/>
<path d="M0 0 C2 2 2 2 2.1953125 4.1640625 C2.13020833 6.44270833 2.06510417 8.72135417 2 11 C-1.96 11 -5.92 11 -10 11 C-10 10.34 -10 9.68 -10 9 C-10.66 8.34 -11.32 7.68 -12 7 C-8.7 7 -5.4 7 -2 7 C-1.34 4.69 -0.68 2.38 0 0 Z " fill="#E3E3E3" transform="translate(100,175)"/>
<path d="M0 0 C2.97 0 5.94 0 9 0 C7.56774151 5.01290472 5.05490999 6.98038618 1 10 C0.67 10 0.34 10 0 10 C0 6.7 0 3.4 0 0 Z " fill="#E9E9E9" transform="translate(166,122)"/>
<path d="M0 0 C1.32 0 2.64 0 4 0 C4 3.96 4 7.92 4 12 C2.02 12 0.04 12 -2 12 C-1.67 11.34 -1.34 10.68 -1 10 C-0.77377919 8.29636178 -0.59111527 6.58671299 -0.4375 4.875 C-0.35371094 3.96492188 -0.26992187 3.05484375 -0.18359375 2.1171875 C-0.12300781 1.41851562 -0.06242188 0.71984375 0 0 Z " fill="#EFEFEF" transform="translate(187,109)"/>
<path d="M0 0 C3.96 0 7.92 0 12 0 C12 0.66 12 1.32 12 2 C14.97 2 17.94 2 21 2 C21 2.33 21 2.66 21 3 C17.87549468 3.19645093 14.75038555 3.38063489 11.625 3.5625 C10.29082031 3.64661133 10.29082031 3.64661133 8.9296875 3.73242188 C7.65351562 3.80493164 7.65351562 3.80493164 6.3515625 3.87890625 C5.56604004 3.9260376 4.78051758 3.97316895 3.97119141 4.02172852 C2 4 2 4 0 3 C0 2.01 0 1.02 0 0 Z " fill="#D1D1D1" transform="translate(115,45)"/>
<path d="M0 0 C0.66 0.33 1.32 0.66 2 1 C2 3.97 2 6.94 2 10 C0.02 10 -1.96 10 -4 10 C-2.8905928 6.51329166 -1.73662334 3.22515763 0 0 Z " fill="#E2E2E2" transform="translate(87,163)"/>
<path d="M0 0 C0.33 0 0.66 0 1 0 C1 2.64 1 5.28 1 8 C-0.65 8 -2.3 8 -4 8 C-3.4021799 4.65220745 -2.20964398 2.57791798 0 0 Z " fill="#F8F8F8" transform="translate(101,37)"/>
<path d="M0 0 C0.33 0 0.66 0 1 0 C1 1.65 1 3.3 1 5 C0.01 5 -0.98 5 -2 5 C-2 6.32 -2 7.64 -2 9 C-3.65 9 -5.3 9 -7 9 C-6.67 7.68 -6.34 6.36 -6 5 C-4.02 4.67 -2.04 4.34 0 4 C0 2.68 0 1.36 0 0 Z " fill="#CACACA" transform="translate(66,100)"/>
<path d="M0 0 C2 2 2 2 2.125 5.625 C2.08375 6.73875 2.0425 7.8525 2 9 C0.68 8.67 -0.64 8.34 -2 8 C-1.34 5.36 -0.68 2.72 0 0 Z " fill="#E7E7E7" transform="translate(100,74)"/>
</svg>
